<?xml version="1.0" encoding="utf-8"?>
<!-- Generator: Adobe Illustrator 16.0.0, SVG Export Plug-In . SVG Version: 6.00 Build 0)  -->
<!DOCTYPE svg PUBLIC "-//W3C//DTD SVG 1.1//EN" "http://www.w3.org/Graphics/SVG/1.1/DTD/svg11.dtd">
<svg version="1.1" xmlns="http://www.w3.org/2000/svg" xmlns:xlink="http://www.w3.org/1999/xlink" x="0px" y="0px"
	 width="298.709px" height="298.71px" viewBox="0 0 298.709 298.71" style="enable-background:new 0 0 298.709 298.71;"
	 xml:space="preserve">
<g id="Layer_1">
</g>
<g id="Layer_2">
	<circle style="fill:#494949;stroke:#FFFFFF;stroke-width:2;stroke-miterlimit:10;" cx="149.016" cy="150.193" r="145.895"/>
	<circle style="fill:none;stroke:#FFFFFF;stroke-width:6;stroke-miterlimit:10;" cx="149.017" cy="150.193" r="128.196"/>
	<polygon style="fill:none;stroke:#FFFFFF;stroke-width:3;stroke-miterlimit:10;" points="73.903,120.608 83.42,139.892 
		104.701,142.984 89.302,157.995 92.937,179.189 73.903,169.183 54.868,179.189 58.503,157.995 43.104,142.984 64.385,139.892 	"/>
	<polygon style="fill:none;stroke:#FFFFFF;stroke-width:3;stroke-miterlimit:10;" points="148.865,120.608 158.382,139.892 
		179.663,142.984 164.264,157.995 167.899,179.189 148.865,169.183 129.831,179.189 133.466,157.995 118.066,142.984 
		139.348,139.892 	"/>
	<polygon style="fill:none;stroke:#FFFFFF;stroke-width:3;stroke-miterlimit:10;" points="224.87,120.608 234.386,139.892 
		255.667,142.984 240.268,157.995 243.903,179.189 224.87,169.183 205.833,179.189 209.469,157.995 194.07,142.984 215.351,139.892 
			"/>
	
		<line style="fill:none;stroke:#FFFFFF;stroke-width:2;stroke-miterlimit:10;" x1="43.516" y1="107.193" x2="255.516" y2="107.193"/>
	
		<line style="fill:none;stroke:#FFFFFF;stroke-width:2;stroke-miterlimit:10;" x1="43.516" y1="192.193" x2="255.516" y2="192.193"/>
</g>
</svg>
