<?xml version="1.0" encoding="utf-8"?>
<!-- Generator: Adobe Illustrator 16.0.0, SVG Export Plug-In . SVG Version: 6.00 Build 0)  -->
<!DOCTYPE svg PUBLIC "-//W3C//DTD SVG 1.1//EN" "http://www.w3.org/Graphics/SVG/1.1/DTD/svg11.dtd">
<svg version="1.1" id="Layer_1" xmlns="http://www.w3.org/2000/svg" xmlns:xlink="http://www.w3.org/1999/xlink" x="0px" y="0px"
	 width="544.715px" height="222.765px" viewBox="0 0 544.715 222.765" style="enable-background:new 0 0 544.715 222.765;"
	 xml:space="preserve">
<rect x="0.602" y="0.195" style="fill:none;" width="545" height="223"/>
<text transform="matrix(1 0 0 1 89.562 162.6016)" style="display:none;fill:#FFFFFF;stroke:#FFFFFF;stroke-miterlimit:10; font-family:'Candara-Bold'; font-size:49;">TESTING ATELIER</text>
<line style="fill:none;stroke:#FFFFFF;stroke-width:2;stroke-miterlimit:10;" x1="123.602" y1="87.195" x2="420.602" y2="87.195"/>
<text transform="matrix(1 0 0 1 213.2139 204.625)" style="fill:#FFFFFF; font-family:'Candara'; font-size:34; letter-spacing:5;">LEEDS</text>
<path style="fill:#FFFFFF;" d="M195.602,196.195c0,0-137.557,0-155.073,0s-24.927-4-24.927-4h180V196.195z"/>
<path style="fill:#FFFFFF;" d="M346.602,196.195c0,0,137.557,0,155.073,0s24.927-4,24.927-4h-180V196.195z"/>
<circle style="fill:none;stroke:#FFFFFF;stroke-miterlimit:10;" cx="271.602" cy="39.13" r="31.301"/>
<circle style="fill:none;stroke:#FFFFFF;stroke-width:0.5;stroke-miterlimit:10;" cx="271.602" cy="39.13" r="26.5"/>
<polygon style="fill:none;stroke:#FFFFFF;stroke-width:0.5;stroke-miterlimit:10;" points="271.602,36.559 273.131,39.659 
	276.553,40.156 274.077,42.569 274.661,45.976 271.602,44.368 268.542,45.976 269.126,42.569 266.651,40.156 270.072,39.659 "/>
<polygon style="fill:none;stroke:#FFFFFF;stroke-width:0.5;stroke-miterlimit:10;" points="257.724,36.559 259.253,39.659 
	262.674,40.156 260.199,42.569 260.783,45.976 257.724,44.368 254.664,45.976 255.248,42.569 252.773,40.156 256.194,39.659 "/>
<polygon style="fill:none;stroke:#FFFFFF;stroke-width:0.5;stroke-miterlimit:10;" points="285.724,36.559 287.254,39.659 
	290.674,40.156 288.199,42.569 288.783,45.976 285.724,44.368 282.664,45.976 283.248,42.569 280.773,40.156 284.193,39.659 "/>
<text transform="matrix(1 0 0 1 204.9185 49.9761)" style="fill:#FFFFFF; font-family:'Chevin-Thin'; font-size:15; letter-spacing:2;">20</text>
<text transform="matrix(1 0 0 1 315.918 49.9761)" style="fill:#FFFFFF; font-family:'Chevin-Thin'; font-size:15; letter-spacing:2;">15</text>
<ellipse style="fill:none;" cx="271.601" cy="229.735" rx="272.5" ry="81.46"/>
<text transform="matrix(0.8648 -0.5021 0.5021 0.8648 24.5781 195.168)"><tspan x="0" y="0" style="fill:#FFFFFF;stroke:#FFFFFF;stroke-miterlimit:10; font-family:'Candara-Bold'; font-size:49;"> </tspan><tspan x="10.104" y="-0.004" style="fill:#FFFFFF;stroke:#FFFFFF;stroke-miterlimit:10; font-family:'Candara-Bold'; font-size:49;" rotate="3.77"> </tspan><tspan x="20.301" y="0.669" style="fill:#FFFFFF;stroke:#FFFFFF;stroke-miterlimit:10; font-family:'Candara-Bold'; font-size:49;" rotate="6.772"> </tspan><tspan x="30.483" y="1.875" style="fill:#FFFFFF;stroke:#FFFFFF;stroke-miterlimit:10; font-family:'Candara-Bold'; font-size:49;" rotate="9.226"> </tspan><tspan x="40.697" y="3.535" style="fill:#FFFFFF;stroke:#FFFFFF;stroke-miterlimit:10; font-family:'Candara-Bold'; font-size:49;" rotate="11.304"> </tspan><tspan x="50.863" y="5.568" style="fill:#FFFFFF;stroke:#FFFFFF;stroke-miterlimit:10; font-family:'Candara-Bold'; font-size:49;" rotate="13.089"> </tspan><tspan x="60.993" y="7.923" style="fill:#FFFFFF;stroke:#FFFFFF;stroke-miterlimit:10; font-family:'Candara-Bold'; font-size:49;" rotate="14.656"> </tspan><tspan x="71.027" y="10.393" style="fill:#FFFFFF;stroke:#FFFFFF;stroke-miterlimit:10; font-family:'Candara-Bold'; font-size:49;" rotate="16.969">T</tspan><tspan x="95.294" y="17.808" style="fill:#FFFFFF;stroke:#FFFFFF;stroke-miterlimit:10; font-family:'Candara-Bold'; font-size:49;" rotate="19.683">E</tspan><tspan x="119.327" y="26.414" style="fill:#FFFFFF;stroke:#FFFFFF;stroke-miterlimit:10; font-family:'Candara-Bold'; font-size:49;" rotate="21.966">S</tspan><tspan x="142.834" y="35.898" style="fill:#FFFFFF;stroke:#FFFFFF;stroke-miterlimit:10; font-family:'Candara-Bold'; font-size:49;" rotate="23.972">T</tspan><tspan x="166.171" y="46.357" style="fill:#FFFFFF;stroke:#FFFFFF;stroke-miterlimit:10; font-family:'Candara-Bold'; font-size:49;" rotate="25.384">I</tspan><tspan x="178.386" y="52.01" style="fill:#FFFFFF;stroke:#FFFFFF;stroke-miterlimit:10; font-family:'Candara-Bold'; font-size:49;" rotate="26.942">N</tspan><tspan x="207.157" y="66.655" style="fill:#FFFFFF;stroke:#FFFFFF;stroke-miterlimit:10; font-family:'Candara-Bold'; font-size:49;" rotate="28.95">G</tspan><tspan x="233.589" y="81.376" style="fill:#FFFFFF;stroke:#FFFFFF;stroke-miterlimit:10; font-family:'Candara-Bold'; font-size:49;" rotate="30.418"> </tspan><tspan x="242.668" y="86.552" style="fill:#FFFFFF;stroke:#FFFFFF;stroke-miterlimit:10; font-family:'Candara-Bold'; font-size:49;" rotate="31.491">A</tspan><tspan x="268.749" y="102.566" style="fill:#FFFFFF;stroke:#FFFFFF;stroke-miterlimit:10; font-family:'Candara-Bold'; font-size:49;" rotate="33.298">T</tspan><tspan x="290.093" y="116.576" style="fill:#FFFFFF;stroke:#FFFFFF;stroke-miterlimit:10; font-family:'Candara-Bold'; font-size:49;" rotate="35.04">E</tspan><tspan x="311.05" y="131.28" style="fill:#FFFFFF;stroke:#FFFFFF;stroke-miterlimit:10; font-family:'Candara-Bold'; font-size:49;" rotate="36.846">L</tspan><tspan x="329.872" y="145.459" style="fill:#FFFFFF;stroke:#FFFFFF;stroke-miterlimit:10; font-family:'Candara-Bold'; font-size:49;" rotate="38.329">I</tspan><tspan x="340.476" y="153.713" style="fill:#FFFFFF;stroke:#FFFFFF;stroke-miterlimit:10; font-family:'Candara-Bold'; font-size:49;" rotate="40.053">E</tspan><tspan x="360.017" y="170.048" style="fill:#FFFFFF;stroke:#FFFFFF;stroke-miterlimit:10; font-family:'Candara-Bold'; font-size:49;" rotate="42.848">R</tspan></text>
<circle style="fill:none;stroke:#FFFFFF;stroke-miterlimit:10;" cx="65.846" cy="159.342" r="7.317"/>
<circle style="fill:none;stroke:#FFFFFF;stroke-miterlimit:10;" cx="470.846" cy="159.342" r="7.317"/>
</svg>
